#!OML:ASF X:\für Bonn\!DataBase\2005_08_11_Bastian_Final\c3d\Bastian.ASF
:FULLY-SPECIFIED
:DEGREES
31
root -1.715 17.2739 5.8619 157.646 -19.031 -176.667
lowerback 21.4536 -4.12222 -1.84923
upperback 10.9623 -7.94215 1.33313
thorax 0.485235 -5.05487 4.04057
lowerneck -11.3818 -5.93657 -2.59701
upperneck -4.85075 -8.32772 8.96276
head 0.938978 -4.32376 2.94982
rclavicle 1.29707e-014 -2.40529e-014
rhumerus -44.7738 28.6123 -100.992
rradius 34.4053
rwrist -33.4069
rhand -35.8844 2.01408
rfingers 7.12502
rthumb -8.99828 -27.774
lclavicle 1.29707e-014 -2.40529e-014
lhumerus 22.0799 -26.1831 83.3527
lradius 89.3953
lwrist -11.1369
lhand -52.1956 -12.844
lfingers 7.12502
lthumb -24.6949 15.5823
rfemur -31.8591 -1.77657 19.5533
rtibia 86.2475
rfoot 11.9938 -16.8992
rtoes -15.0829
lfemur 12.4725 -3.00088 -19.9722
ltibia 24.5479
lfoot -8.08932 -7.16318
ltoes -1.03502
32
root -1.7253 17.2731 5.88609 157.264 -18.8573 -176.516
lowerback 22.0761 -4.21441 -1.86083
upperback 11.0752 -8.1568 1.41806
thorax 0.338603 -5.20249 4.2435
lowerneck -11.655 -5.80084 -2.75404
upperneck -4.44332 -8.13226 8.98993
head 1.11778 -4.19965 2.98556
rclavicle -1.77415e-014 6.75868e-015
rhumerus -44.9739 29.1199 -101.134
rradius 34.8132
rwrist -33.8079
rhand -35.9967 1.96779
rfingers 7.12502
rthumb -9.10667 -27.8156
lclavicle -1.77415e-014 6.75868e-015
lhumerus 23.7545 -25.8811 82.8535
lradius 90.188
lwrist -11.0801
lhand -52.3043 -12.5437
lfingers 7.12502
lthumb -24.7992 15.8684
rfemur -33.3025 -1.22451 20.0569
rtibia 88.0481
rfoot 11.5473 -17.0768
rtoes -14.8889
lfemur 12.842 -3.11221 -19.924
ltibia 24.4121
lfoot -7.96442 -6.9092
ltoes -0.361995
33
root -1.73727 17.2683 5.91001 156.874 -18.7051 -176.375
lowerback 22.693 -4.31578 -1.86761
upperback 11.2004 -8.38802 1.49625
thorax 0.211682 -5.3609 4.44123
lowerneck -11.9346 -6.50552 -2.73107
upperneck -3.95106 -7.79035 9.01938
head 1.31587 -3.40436 3.01092
rclavicle -4.03533e-014 3.1408e-014
rhumerus -45.1252 29.5703 -101.224
rradius 35.2232
rwrist -34.1438
rhand -36.1017 1.98006
rfingers 7.12502
rthumb -9.20798 -27.7989
lclavicle -4.03533e-014 3.1408e-014
lhumerus 25.4424 -25.5612 82.3278
lradius 90.9619
lwrist -10.99
lhand -52.4044 -12.272
lfingers 7.12502
lthumb -24.8951 16.1268
rfemur -34.7792 -0.80974 20.5264
rtibia 89.8735
rfoot 11.1052 -17.087
rtoes -14.4436
lfemur 13.2079 -3.23836 -19.908
ltibia 24.3239
lfoot -7.87609 -6.64369
ltoes 0.155485
34
root -1.7497 17.2644 5.93168 156.487 -18.5233 -176.217
lowerback 23.2987 -4.41275 -1.81402
upperback 11.3084 -8.59617 1.56134
thorax 0.0620558 -5.50182 4.5911
lowerneck -12.0665 -6.36086 -2.90484
upperneck -3.65537 -7.6155 9.06809
head 1.43775 -3.31413 3.06511
rclavicle -1.2429e-013 6.83819e-014
rhumerus -45.3277 30.0102 -101.349
rradius 35.6625
rwrist -34.4376
rhand -36.2133 1.90536
rfingers 7.12502
rthumb -9.31559 -27.8688
lclavicle -1.2429e-013 6.83819e-014
lhumerus 27.0531 -25.3099 81.8135
lradius 91.6882
lwrist -10.8827
lhand -52.562 -12.123
lfingers 7.12502
lthumb -25.0461 16.2548
rfemur -36.2791 -0.475026 21.046
rtibia 91.6872
rfoot 10.7322 -16.9679
rtoes -13.8957
lfemur 13.5603 -3.39109 -19.8838
ltibia 24.2707
lfoot -7.83413 -6.32919
ltoes 0.700664
35
root -1.76333 17.259 5.94976 156.073 -18.3523 -176.06
lowerback 23.8751 -4.50756 -1.76435
upperback 11.4468 -8.81196 1.63161
thorax -0.0343985 -5.65316 4.74597
lowerneck -12.1016 -6.21351 -3.03255
upperneck -3.4703 -7.43193 9.06353
head 1.50012 -3.2252 3.0968
rclavicle 2.5345e-014 -2.74323e-014
rhumerus -45.442 30.4155 -101.402
rradius 36.0575
rwrist -34.6495
rhand -36.3006 1.82982
rfingers 7.12502
rthumb -9.39987 -27.9406
lclavicle 2.5345e-014 -2.74323e-014
lhumerus 28.675 -25.0246 81.2999
lradius 92.3906
lwrist -10.6977
lhand -52.6848 -12.11
lfingers 7.12502
lthumb -25.1638 16.2514
rfemur -37.7555 -0.145958 21.5711
rtibia 93.5038
rfoot 10.2923 -16.8368
rtoes -13.512
lfemur 13.9436 -3.54838 -19.8679
ltibia 24.247
lfoot -7.82116 -6.03026
ltoes 1.17026
36
root -1.77636 17.2542 5.96508 155.653 -18.2087 -175.889
lowerback 24.4319 -4.61542 -1.70989
upperback 11.5822 -9.04286 1.70018
thorax -0.121278 -5.81201 4.89996
lowerneck -12.0653 -6.05566 -3.14039
upperneck -3.32812 -7.2336 9.06995
head 1.53416 -3.13132 3.13155
rclavicle 1.02523e-013 -8.52786e-014
rhumerus -45.5622 30.843 -101.448
rradius 36.4585
rwrist -34.7786
rhand -36.3814 1.61923
rfingers 7.12502
rthumb -9.47778 -28.1476
lclavicle 1.02523e-013 -8.52786e-014
lhumerus 30.2232 -24.7373 80.7847
lradius 93.0712
lwrist -10.5447
lhand -52.847 -12.0917
lfingers 7.12502
lthumb -25.3192 16.2478
rfemur -39.2548 0.141252 22.1218
rtibia 95.3191
rfoot 9.89487 -16.6699
rtoes -12.9359
lfemur 14.3262 -3.68977 -19.8248
ltibia 24.234
lfoot -7.83776 -5.79048
ltoes 1.51487
